<svg data-v-fde0c5aa="" xmlns="http://www.w3.org/2000/svg" viewBox="0 0 300 300" class="iconLeft"><!----><defs data-v-fde0c5aa=""><!----></defs><rect data-v-fde0c5aa="" fill="transparent" x="0" y="0" width="300px" height="300px" class="logo-background-square"></rect><defs data-v-fde0c5aa=""><!----></defs><g data-v-fde0c5aa="" id="f6707039-eada-4b2f-bd2e-400b4196e08e" fill="#000000" transform="matrix(2.6932131617485515,0,0,2.6932131617485515,102.60862861284429,129.2353270622928)"><path d="M5.54 13.24L5.54 13.24Q3.18 13.24 1.94 11.93Q0.70 10.61 0.70 8.19L0.70 8.19Q0.70 6.99 1.08 6.04Q1.46 5.10 2.11 4.45Q2.77 3.79 3.68 3.46Q4.59 3.12 5.66 3.12L5.66 3.12Q6.27 3.12 6.78 3.21Q7.28 3.30 7.66 3.42Q8.04 3.54 8.29 3.67Q8.54 3.79 8.65 3.86L8.65 3.86L8.02 5.63Q7.57 5.39 6.98 5.22Q6.38 5.05 5.63 5.05L5.63 5.05Q5.12 5.05 4.64 5.22Q4.16 5.39 3.79 5.76Q3.42 6.13 3.19 6.72Q2.97 7.31 2.97 8.15L2.97 8.15Q2.97 8.82 3.12 9.40Q3.26 9.98 3.59 10.40Q3.92 10.82 4.45 11.07Q4.98 11.31 5.74 11.31L5.74 11.31Q6.22 11.31 6.59 11.26Q6.97 11.20 7.27 11.12Q7.56 11.05 7.78 10.95Q8.01 10.85 8.19 10.77L8.19 10.77L8.79 12.52Q8.33 12.80 7.49 13.02Q6.65 13.24 5.54 13.24ZM12.14 13.05L10.05 13.05L10.05 2.52L12.14 2.18L12.14 5.71Q12.35 5.64 12.68 5.58Q13.01 5.52 13.31 5.52L13.31 5.52Q14.21 5.52 14.81 5.76Q15.40 6.01 15.76 6.45Q16.11 6.90 16.26 7.52Q16.41 8.13 16.41 8.89L16.41 8.89L16.41 13.05L14.32 13.05L14.32 9.14Q14.32 8.13 14.06 7.71Q13.80 7.29 13.10 7.29L13.10 7.29Q12.82 7.29 12.58 7.34Q12.33 7.39 12.14 7.45L12.14 7.45L12.14 13.05ZM20.38 5.68L20.38 13.05L18.30 13.05L18.30 5.68L20.38 5.68ZM20.58 3.56L20.58 3.56Q20.58 4.13 20.21 4.46Q19.84 4.79 19.33 4.79L19.33 4.79Q18.83 4.79 18.46 4.46Q18.09 4.13 18.09 3.56L18.09 3.56Q18.09 2.98 18.46 2.65Q18.83 2.32 19.33 2.32L19.33 2.32Q19.84 2.32 20.21 2.65Q20.58 2.98 20.58 3.56ZM22.27 10.04L22.27 3.85L24.36 3.51L24.36 5.68L26.87 5.68L26.87 7.42L24.36 7.42L24.36 10.01Q24.36 10.67 24.59 11.06Q24.82 11.45 25.52 11.45L25.52 11.45Q25.86 11.45 26.21 11.39Q26.57 11.33 26.87 11.21L26.87 11.21L27.16 12.84Q26.78 12.99 26.32 13.10Q25.86 13.22 25.19 13.22L25.19 13.22Q24.33 13.22 23.77 12.98Q23.21 12.75 22.88 12.34Q22.54 11.93 22.41 11.34Q22.27 10.75 22.27 10.04L22.27 10.04ZM33.12 13.24L33.12 13.24Q30.76 13.24 29.52 11.93Q28.28 10.61 28.28 8.19L28.28 8.19Q28.28 6.99 28.66 6.04Q29.04 5.10 29.69 4.45Q30.35 3.79 31.26 3.46Q32.17 3.12 33.24 3.12L33.24 3.12Q33.85 3.12 34.36 3.21Q34.86 3.30 35.24 3.42Q35.62 3.54 35.87 3.67Q36.12 3.79 36.23 3.86L36.23 3.86L35.60 5.63Q35.15 5.39 34.56 5.22Q33.96 5.05 33.21 5.05L33.21 5.05Q32.70 5.05 32.22 5.22Q31.74 5.39 31.37 5.76Q31.00 6.13 30.77 6.72Q30.55 7.31 30.55 8.15L30.55 8.15Q30.55 8.82 30.70 9.40Q30.84 9.98 31.17 10.40Q31.50 10.82 32.03 11.07Q32.56 11.31 33.32 11.31L33.32 11.31Q33.80 11.31 34.17 11.26Q34.55 11.20 34.85 11.12Q35.14 11.05 35.36 10.95Q35.59 10.85 35.77 10.77L35.77 10.77L36.37 12.52Q35.91 12.80 35.07 13.02Q34.23 13.24 33.12 13.24ZM39.72 13.05L37.63 13.05L37.63 2.52L39.72 2.18L39.72 5.71Q39.93 5.64 40.26 5.58Q40.59 5.52 40.89 5.52L40.89 5.52Q41.79 5.52 42.39 5.76Q42.98 6.01 43.34 6.45Q43.69 6.90 43.84 7.52Q43.99 8.13 43.99 8.89L43.99 8.89L43.99 13.05L41.90 13.05L41.90 9.14Q41.90 8.13 41.64 7.71Q41.38 7.29 40.68 7.29L40.68 7.29Q40.40 7.29 40.16 7.34Q39.91 7.39 39.72 7.45L39.72 7.45L39.72 13.05ZM48.69 11.59L48.69 11.59Q49 11.59 49.28 11.58Q49.56 11.56 49.73 11.54L49.73 11.54L49.73 9.95Q49.60 9.93 49.35 9.90Q49.10 9.87 48.89 9.87L48.89 9.87Q48.59 9.87 48.34 9.90Q48.08 9.94 47.88 10.04Q47.68 10.14 47.57 10.30Q47.46 10.47 47.46 10.72L47.46 10.72Q47.46 11.21 47.79 11.40Q48.12 11.59 48.69 11.59ZM48.52 5.49L48.52 5.49Q49.45 5.49 50.06 5.70Q50.68 5.91 51.05 6.30Q51.42 6.69 51.58 7.25Q51.73 7.81 51.73 8.50L51.73 8.50L51.73 12.84Q51.28 12.94 50.48 13.07Q49.69 13.20 48.55 13.20L48.55 13.20Q47.84 13.20 47.26 13.08Q46.68 12.95 46.26 12.66Q45.84 12.38 45.61 11.91Q45.39 11.45 45.39 10.78L45.39 10.78Q45.39 10.14 45.65 9.69Q45.91 9.24 46.34 8.97Q46.77 8.71 47.33 8.59Q47.89 8.47 48.50 8.47L48.50 8.47Q48.90 8.47 49.22 8.50Q49.53 8.54 49.73 8.60L49.73 8.60L49.73 8.40Q49.73 7.87 49.41 7.55Q49.08 7.22 48.29 7.22L48.29 7.22Q47.75 7.22 47.24 7.30Q46.72 7.38 46.34 7.52L46.34 7.52L46.07 5.84Q46.26 5.78 46.53 5.72Q46.80 5.66 47.12 5.61Q47.45 5.56 47.80 5.52Q48.16 5.49 48.52 5.49ZM53.55 10.04L53.55 3.85L55.64 3.51L55.64 5.68L58.14 5.68L58.14 7.42L55.64 7.42L55.64 10.01Q55.64 10.67 55.87 11.06Q56.10 11.45 56.80 11.45L56.80 11.45Q57.13 11.45 57.49 11.39Q57.85 11.33 58.14 11.21L58.14 11.21L58.44 12.84Q58.06 12.99 57.60 13.10Q57.13 13.22 56.46 13.22L56.46 13.22Q55.61 13.22 55.05 12.98Q54.49 12.75 54.15 12.34Q53.82 11.93 53.68 11.34Q53.55 10.75 53.55 10.04L53.55 10.04Z"></path></g><defs data-v-fde0c5aa=""><linearGradient data-v-fde0c5aa="" gradientTransform="rotate(25)" id="5ebbc278-22db-4565-abb5-f9390d4ccba2" x1="0%" y1="0%" x2="100%" y2="0%"><stop data-v-fde0c5aa="" offset="0%" stop-color="#5A5A2D" stop-opacity="1"></stop><stop data-v-fde0c5aa="" offset="100%" stop-color="#0DE30D" stop-opacity="1"></stop></linearGradient></defs><g data-v-fde0c5aa="" id="8edfdb2a-3c1d-4036-ae27-1cc3afbcedc8" stroke="none" fill="url(#5ebbc278-22db-4565-abb5-f9390d4ccba2)" transform="matrix(0.5158208586835333,0,0,0.5158208586835333,39.943775523913125,123.60080580037098)"><path d="M89.633 72.435H79L67.251 84.184 56.062 72.435H10.414V18.173h79.219v54.262zM10.414 7.869C4.722 7.869.109 12.483.109 18.174v54.261c0 5.69 4.613 10.306 10.305 10.306h41.23l8.145 8.552a10.296 10.296 0 007.335 3.196h.127a10.3 10.3 0 007.284-3.017l8.733-8.731h6.363c5.689 0 10.305-4.615 10.305-10.306l.002-54.261c0-5.691-4.612-10.305-10.305-10.305H10.414z"></path><path d="M38.547 40.832H38.573c2.979-.08 5.059-2.064 5.059-4.825 0-2.833-2.139-4.889-5.084-4.889-2.862 0-5.021 2.074-5.021 4.825-.001 2.832 2.111 4.889 5.02 4.889zM61.435 40.832h.028c2.978-.08 5.056-2.064 5.056-4.825 0-2.833-2.137-4.889-5.083-4.889-2.861 0-5.021 2.074-5.021 4.825-.001 2.832 2.111 4.889 5.02 4.889zM79.31 41.996c-1.26-1.163-3.405-1.077-4.569.183a33.73 33.73 0 01-26.09 10.818c-8.968-.361-17.258-4.196-23.346-10.799-1.162-1.258-3.306-1.347-4.567-.184a3.236 3.236 0 00-.185 4.567c7.254 7.869 17.141 12.442 27.835 12.878.542.022 1.079.032 1.617.032.58 0 1.157-.013 1.736-.036C62.396 59 72.25 54.42 79.494 46.561a3.217 3.217 0 00.854-2.322 3.224 3.224 0 00-1.038-2.243z"></path></g><!----></svg>