<svg xmlns="http://www.w3.org/2000/svg" version="1.1" xmlns:xlink="http://www.w3.org/1999/xlink" xmlns:svgjs="http://svgjs.dev/svgjs" width="1440" height="560" preserveAspectRatio="none" viewBox="0 0 1440 560"><g mask="url(&quot;#SvgjsMask1124&quot;)" fill="none"><path d="M154.942,222.028C178.622,223.124,204.348,216.965,216.147,196.405C227.91,175.91,219.454,151.104,207.264,130.86C195.549,111.404,177.652,94.925,154.942,94.758C131.987,94.589,112.185,109.886,101.267,130.079C90.885,149.282,91.815,172.309,102.82,191.162C113.731,209.853,133.323,221.028,154.942,222.028" fill="rgba(4, 88, 11, 0.2)" class="triangle-float2"></path><path d="M1229.838,424.038C1257.332,424.375,1279.43,403.689,1292.669,379.59C1305.364,356.481,1307.938,328.668,1294.781,305.82C1281.6,282.93,1256.232,269.445,1229.838,270.481C1205.052,271.454,1185.282,288.95,1173.168,310.596C1161.378,331.664,1158.835,356.481,1169.624,378.079C1181.718,402.289,1202.777,423.706,1229.838,424.038" fill="rgba(4, 88, 11, 0.2)" class="triangle-float2"></path><path d="M984.175,325.638C1002.915,325.023,1016.203,309.733,1025.734,293.586C1035.48,277.075,1043.34,257.558,1034.36,240.618C1024.946,222.859,1004.259,214.395,984.175,215.187C965.406,215.928,949.748,228.026,940.411,244.325C931.137,260.516,928.768,280.046,937.611,296.476C946.914,313.761,964.557,326.281,984.175,325.638" fill="rgba(4, 88, 11, 0.2)" class="triangle-float1"></path><path d="M438.51,363.938C471.912,364.725,500.176,340.881,515.863,311.382C530.586,283.695,528.336,251.065,513.11,223.652C497.381,195.334,470.872,173.539,438.51,172.119C403.681,170.591,367.849,185.703,351.642,216.569C336.257,245.869,350.419,279.369,367.224,307.879C383.677,335.791,406.119,363.175,438.51,363.938" fill="rgba(4, 88, 11, 0.2)" class="triangle-float3"></path><path d="M596.689,264.152C650.521,265.248,685.947,214.611,712.596,167.825C738.88,121.68,759.033,68.392,735.238,20.915C709.272,-30.893,654.62,-64.96,596.689,-63.437C540.975,-61.972,494.184,-22.43,470.212,27.884C449.216,71.953,465.642,120.228,488.68,163.265C513.6,209.818,543.897,263.077,596.689,264.152" fill="rgba(4, 88, 11, 0.2)" class="triangle-float3"></path><path d="M850.284,452.88C867.728,451.751,883.949,444.639,893.546,430.029C904.275,413.697,910.299,392.961,900.9,375.829C891.225,358.195,870.398,351.099,850.284,351.178C830.327,351.257,811.069,359.388,800.355,376.225C788.797,394.39,784.346,418.295,796.097,436.336C807.144,453.296,830.085,454.187,850.284,452.88" fill="rgba(4, 88, 11, 0.2)" class="triangle-float3"></path></g><defs><mask id="SvgjsMask1124"><rect width="1440" height="560" fill="#ffffff"></rect></mask><style>
                @keyframes float1 {
                    0%{transform: translate(0, 0)}
                    50%{transform: translate(-10px, 0)}
                    100%{transform: translate(0, 0)}
                }

                .triangle-float1 {
                    animation: float1 5s infinite;
                }

                @keyframes float2 {
                    0%{transform: translate(0, 0)}
                    50%{transform: translate(-5px, -5px)}
                    100%{transform: translate(0, 0)}
                }

                .triangle-float2 {
                    animation: float2 4s infinite;
                }

                @keyframes float3 {
                    0%{transform: translate(0, 0)}
                    50%{transform: translate(0, -10px)}
                    100%{transform: translate(0, 0)}
                }

                .triangle-float3 {
                    animation: float3 6s infinite;
                }
            </style></defs></svg>